HIERARCHY
ROOT Hips
{
  OFFSET -125.086 92.215 135.881
  CHANNELS 6 Xposition Yposition Zposition Zrotation Xrotation Yrotation
  JOINT LeftUpLeg
  {
    OFFSET 8.64259 1.95398 -2.38835
    CHANNELS 3 Zrotation Xrotation Yrotation
    JOINT LeftLeg
    {
      OFFSET 43.7702 0 0
      CHANNELS 3 Zrotation Xrotation Yrotation
      JOINT LeftFoot
      {
        OFFSET 40.6238 0 0
        CHANNELS 3 Zrotation Xrotation Yrotation
        JOINT LeftToeBase
        {
          OFFSET 12.7242 0 0
          CHANNELS 3 Zrotation Xrotation Yrotation
          End Site
          {
            OFFSET 0 0 0
          }
        }
      }
    }
  }
  JOINT RightUpLeg
  {
    OFFSET -8.2249 1.95398 -2.59336
    CHANNELS 3 Zrotation Xrotation Yrotation
    JOINT RightLeg
    {
      OFFSET 43.5653 0 0
      CHANNELS 3 Zrotation Xrotation Yrotation
      JOINT RightFoot
      {
        OFFSET 40.6238 0 0
        CHANNELS 3 Zrotation Xrotation Yrotation
        JOINT RightToeBase
        {
          OFFSET 12.7242 0 0
          CHANNELS 3 Zrotation Xrotation Yrotation
          End Site
          {
            OFFSET 0 0 0
          }
        }
      }
    }
  }
  JOINT Spine
  {
    OFFSET 0.165834 0.87714 6.61349
    CHANNELS 3 Zrotation Xrotation Yrotation
    JOINT Spine1
    {
      OFFSET 7.38963 1.71661e-005 0
      CHANNELS 3 Zrotation Xrotation Yrotation
      JOINT Spine2
      {
        OFFSET 11.9445 1.14441e-005 0
        CHANNELS 3 Zrotation Xrotation Yrotation
        JOINT Spine3
        {
          OFFSET 14.7254 4.19617e-005 0
          CHANNELS 3 Zrotation Xrotation Yrotation
          JOINT Spine4
          {
            OFFSET 10.9679 0 0
            CHANNELS 3 Zrotation Xrotation Yrotation
            JOINT RightShoulder
            {
              OFFSET 2.46616 -1.6653 3.69651
              CHANNELS 3 Zrotation Xrotation Yrotation
              JOINT RightArm
              {
                OFFSET 13.0012 0 0
                CHANNELS 3 Zrotation Xrotation Yrotation
                JOINT RightForeArm
                {
                  OFFSET 28.7848 1.52588e-005 0
                  CHANNELS 3 Zrotation Xrotation Yrotation
                  JOINT RightHand
                  {
                    OFFSET 26.5688 1.52588e-005 0
                    CHANNELS 3 Zrotation Xrotation Yrotation
                    End Site
                    {
                      OFFSET 0 0 0
                    }
                  }
                }
              }
            }
            JOINT LeftShoulder
            {
              OFFSET 2.38034 -1.29275 -3.7523
              CHANNELS 3 Zrotation Xrotation Yrotation
              JOINT LeftArm
              {
                OFFSET 16.3182 6.10352e-005 0
                CHANNELS 3 Zrotation Xrotation Yrotation
                JOINT LeftForeArm
                {
                  OFFSET 27.0901 0 0
                  CHANNELS 3 Zrotation Xrotation Yrotation
                  JOINT LeftHand
                  {
                    OFFSET 24.5451 1.52588e-005 0
                    CHANNELS 3 Zrotation Xrotation Yrotation
                    End Site
                    {
                      OFFSET 0 0 0
                    }
                  }
                }
              }
            }
            JOINT Neck
            {
              OFFSET 5.0226 -0.0266342 0
              CHANNELS 3 Zrotation Xrotation Yrotation
              JOINT Head
              {
                OFFSET 6.69363 2.86102e-005 0
                CHANNELS 3 Zrotation Xrotation Yrotation
                End Site
                {
                  OFFSET 0 0 0
                }
              }
            }
          }
        }
      }
    }
  }
}
MOTION
Frames:	12
Frame Time:	0.0416667
-288.945 66.4971 312.12 89.4141 26.5984 84.8895 -158.244 56.182 85.1573 -84.8247 40.5098 -1.91767 84.5992 23.2319 16.3085 141.114 -55.4327 -37.9251 136.61 -24.1897 3.81747 -15.8895 6.48843 67.903 -6.72879 51.0226 11.1642 -4.06511 -49.1508 113.471 3.41326 3.65981 -89.2479 19.6016 7.08122 0.0414598 7.95001 7.07615 -0.271848 -14.7302 6.73984 2.17759 5.28245 6.73983 2.17759 123.251 -13.2303 -26.7202 107.432 -53.2606 83.2204 -55.3826 23.372 -77.692 -12.3351 4.72224 -49.1098 -56.1534 -32.8679 136.768 -9.55576 47.3543 26.5276 45.2745 13.3412 -89.3825 25.8 -22.1482 -80.0623 62.844 -5.63696 15.0107 -120.614 1.7462 -13.5768 
-289.359 66.4258 312.488 89.2552 26.6165 85.2 -158.274 56.8101 85.2637 -85.3252 40.2383 -1.5939 84.8501 23.2761 15.9223 136.022 -57.532 -43.8704 136.981 -24.1845 5.47414 -11.0244 4.78752 66.1848 -5.1933 52.2744 8.13328 9.65972 -41.5772 124.604 3.40678 3.65087 -89.2582 19.62 7.06299 0.022578 7.96828 7.05711 -0.28989 -14.7114 6.7281 2.15405 5.30126 6.72811 2.15405 123.329 -13.3399 -26.6559 107.873 -52.8343 84.3553 -56.6412 23.9225 -77.4273 -12.6966 4.96862 -49.9075 -56.1609 -32.7762 136.803 -8.59272 46.6553 25.0521 45.384 15.3642 -88.8616 26.2587 -22.6464 -80.3995 63.082 -5.64368 15.0238 -120.75 1.89866 -13.7095 
-290.524 66.2194 313.545 88.7981 26.6793 86.0882 -158.459 58.623 85.6327 -86.7187 39.0365 -0.722645 85.6875 23.3895 14.3893 120.745 -60.8625 -60.8425 137.584 -24.6099 10.2243 5.6599 -2.90689 63.0832 -0.214041 50.0023 -0.5716 39.696 0.72451 128.944 3.38682 3.62596 -89.2865 19.6709 7.00792 -0.0282181 8.01894 6.99986 -0.338166 -14.659 6.69087 2.08889 5.35362 6.69089 2.0889 123.56 -13.6635 -26.4681 109.009 -51.5743 87.4462 -60.4916 25.413 -76.4468 -13.7799 5.70681 -52.026 -56.1782 -32.5194 136.907 -5.93641 44.3406 20.8077 45.7516 21.5933 -87.4138 27.6698 -24.202 -81.4242 63.7647 -5.67018 15.0572 -121.133 2.33495 -14.0924 
-292.293 65.877 315.153 88.0768 26.8139 87.4866 -159.024 61.4989 86.4204 -88.8213 38.7123 0.474887 86.1996 23.4007 13.7372 100.696 -60.9663 -82.2343 137.79 -26.441 18.1761 30.4764 -19.7667 62.3239 -2.15037 33.5648 -2.84468 99.6142 32.4365 69.1456 3.3497 3.58917 -89.3283 19.7458 6.9119 -0.0999603 8.09329 6.90078 -0.405559 -14.5815 6.62091 1.99131 5.43112 6.62093 1.99131 123.942 -14.1989 -26.1615 110.426 -49.5099 91.8373 -67.4351 27.3717 -74.1266 -15.6696 6.97701 -54.8009 -56.1915 -32.1333 137.088 -2.17886 39.4985 14.0769 46.7008 33.003 -85.5712 30.1897 -27.0758 -83.2106 64.8456 -5.73247 15.0989 -121.714 3.02011 -14.7025 
-294.607 65.414 317.112 87.1336 27.053 89.3262 -160.168 65.2435 87.5852 -91.4288 37.9881 1.82005 86.6448 23.4495 12.828 85.1138 -57.8872 -98.4726 142.787 -24.6388 33.5415 34.8144 -48.8604 58.6731 2.61566 17.8057 3.88649 128.051 8.49325 28.1289 3.29108 3.54643 -89.3793 19.8321 6.76873 -0.181228 8.17882 6.75416 -0.480351 -14.491 6.50886 1.8703 5.5216 6.50888 1.87029 124.48 -14.9495 -25.7386 111.627 -46.7499 96.7399 -78.5104 28.7569 -69.4425 -18.5875 8.80977 -57.1836 -56.1827 -31.6601 137.355 1.37746 29.726 5.17823 50.5721 51.971 -85.8405 33.9692 -31.6935 -85.9331 66.2802 -5.85156 15.135 -122.443 3.91845 -15.5182 
-297.367 64.8891 319.332 86.0199 27.4134 91.5334 -162.477 69.6668 89.7507 -94.2644 37.074 3.13784 86.8327 23.4898 11.7813 75.6541 -53.9635 -108.068 139.305 -31.5586 42.8977 49.1981 -68.781 49.9481 2.75878 17.204 22.4758 138.31 1.57179 20.445 3.20826 3.50569 -89.4356 19.9138 6.57543 -0.261878 8.25946 6.55751 -0.552288 -14.4036 6.34885 1.73463 5.6091 6.34885 1.73463 125.179 -15.9204 -25.201 112.199 -43.5412 101.423 -94.8301 27.4502 -61.5424 -22.8492 11.0329 -57.6006 -56.1333 -31.1428 137.722 1.06689 9.17506 -5.91145 104.014 75.6882 -133.631 38.8395 -38.5069 -90.0225 68.0266 -6.04963 15.152 -123.27 4.99622 -16.5203 
-300.546 64.1766 321.828 84.796 27.8891 94.0181 -167.311 74.7569 94.1981 -97.2877 35.9967 4.30441 86.6393 23.4589 10.6364 70.0881 -50.425 -113.466 142.726 -32.8039 48.2391 53.5449 -73.9552 54.7381 4.40671 13.2618 28.6452 146.269 7.34454 24.4425 3.10203 3.47604 -89.4929 19.972 6.3362 -0.332327 8.31644 6.31538 -0.611988 -14.3381 6.14197 1.59475 5.6746 6.14196 1.59475 126.046 -17.1148 -24.55 111.922 -40.2608 105.367 -115.859 20.1354 -51.5881 -28.3096 12.7111 -53.8993 -56.0264 -30.6231 138.197 -19.533 -35.7381 -28.7217 -174.112 35.4841 176.359 43.7734 -46.9276 -95.4155 70.041 -6.34783 15.138 -124.144 6.22262 -17.6912 
-305.519 61.2927 325.822 83.5257 28.4552 96.6666 173.369 83.3376 112.65 -101.64 34.9492 5.23499 84.318 22.1426 9.38772 66.6508 -47.519 -116.574 146.249 -34.6721 53.812 52.2022 -77.4219 52.9638 6.17417 11.6332 33.3787 148.212 23.5957 36.0696 2.97722 3.46692 -89.5456 19.9879 6.06321 -0.382281 8.331 6.04052 -0.649761 -14.3139 5.89678 1.46419 5.69878 5.89678 1.46418 127.085 -18.5301 -23.7889 110.776 -37.3149 108.303 -137.493 5.7057 -44.01 -32.4607 11.9138 -45.3746 -55.8483 -30.14 138.785 -147.25 -31.7788 -134.152 -114.403 -33.4636 -150.155 33.6747 -46.5509 -110.173 72.2736 -6.76395 15.0838 -125.017 7.5716 -19.0147 
-311.394 57.4453 330.523 82.2631 29.0773 99.3599 58.5898 83.8477 -133.867 -105.197 34.1138 5.93482 79.9757 19.7518 7.88615 64.3928 -45.171 -118.418 150.254 -36.5707 59.4869 44.5823 -79.2937 45.1594 7.8758 10.7722 36.4997 124.691 46.7039 69.3821 2.84004 3.48522 -89.587 19.9478 5.77383 -0.401216 8.28954 5.75056 -0.655793 -14.3453 5.6266 1.35829 5.66734 5.62659 1.35829 128.294 -20.1521 -22.924 108.884 -34.9941 110.179 -155.139 -9.98511 -41.5484 -31.9439 8.73997 -35.6728 -55.5923 -29.7237 139.479 148.043 22.6576 -125.616 -84.2966 -31.2543 -64.2313 12.8505 -29.9454 -131.144 74.6667 -7.30916 14.9842 -125.842 9.02434 -20.4767 
-317.386 53.7103 335.227 81.0448 29.7257 101.994 36.1387 74.4038 -112.966 -106.786 33.584 6.47253 74.3316 16.9542 5.99439 62.8317 -43.2631 -119.523 155.246 -37.2455 65.6389 29.2821 -79.4395 32.0404 9.68971 9.5961 37.5627 61.5027 32.1144 132.654 2.69848 3.53371 -89.6104 19.8462 5.48555 -0.379598 8.18669 5.46348 -0.621399 -14.4384 5.34525 1.29146 5.57425 5.34525 1.29145 129.663 -21.9521 -21.9657 106.43 -33.41 111.078 -167.547 -21.0707 -42.1504 -28.3254 5.6845 -27.9946 -55.2603 -29.3925 140.266 101.088 19.9006 -105.464 -82.7436 -15.6167 -13.0655 2.04547 -10.2526 -140.854 77.1538 -7.9861 14.8388 -126.576 10.5677 -22.0646 
-323.429 50.1734 339.884 79.8924 30.3785 104.485 30.1885 65.5839 -108.68 -106.388 33.4014 6.9177 67.6918 14.0954 3.64787 61.7093 -41.695 -120.173 160.403 -37.2469 71.7131 14.4447 -78.1757 19.8799 11.3457 8.50091 37.829 33.288 -14.5588 143.206 2.55862 3.61113 -89.61 19.6859 5.21404 -0.309663 8.02533 5.19533 -0.539469 -14.5908 5.06539 1.27584 5.42192 5.06541 1.27583 131.168 -23.8821 -20.9298 103.614 -32.5109 111.136 -175.637 -27.327 -43.3668 -24.5473 3.64377 -22.3061 -54.8643 -29.1507 141.119 81.8869 6.12474 -104.69 114.777 83.1861 170.907 -2.57711 2.65915 -142.68 79.6587 -8.78835 14.6514 -127.176 12.1889 -23.7648 
-329.441 46.9211 344.447 78.8159 31.0197 106.771 26.8102 58.3096 -106.936 -104.103 33.5572 7.31708 60.4584 11.5399 0.880919 60.8776 -40.3918 -120.529 165.24 -37.0565 77.333 4.50056 -76.1999 11.8802 12.6538 7.80386 38.0904 7.79552 -43.294 124.129 2.42603 3.71258 -89.581 19.477 4.97234 -0.185861 7.81549 4.95932 -0.405069 -14.7925 4.79773 1.32067 5.22012 4.79776 1.32066 132.769 -25.8742 -19.8385 100.637 -32.1331 110.515 179.197 -30.4833 -44.3313 -21.542 2.34004 -17.8572 -54.4269 -28.9877 141.999 75.3282 -5.79037 -107.922 -55.4298 81.8321 -0.500974 -4.28453 4.77891 -142.157 82.0972 -9.69896 14.4295 -127.603 13.8686 -25.5589 
